<?xml version="1.0" encoding="utf-8"?>
<!-- Generator: Adobe Illustrator 27.0.0, SVG Export Plug-In . SVG Version: 6.00 Build 0)  -->
<svg version="1.1" id="Layer_1" xmlns="http://www.w3.org/2000/svg" xmlns:xlink="http://www.w3.org/1999/xlink" x="0px" y="0px"
	 viewBox="0 0 552.9 367.9" style="enable-background:new 0 0 552.9 367.9;" xml:space="preserve">
<style type="text/css">
	.st0{fill:#71C236;}
	.st1{fill:#F3FAEC;}
</style>
<path class="st0" d="M198.4,145.8c-27.8,48.8-15.8,107.1,29.7,139.6c42.5,30.4,101.2,25,137.2-15c27.9-31,35.3-67.5,20.8-106.5
	c-14.6-39.4-44.2-61.7-85.9-67.9c-3.4-0.5-4,0.4-4,3.6c0.1,16.2,0.1,32.4,0,48.6c0,3,0.9,4.1,3.8,4.9c21.6,6.3,34.2,23.3,34.3,45.8
	c0,5.8-0.1,11.6,0,17.4c0.1,3.7-1.2,6.5-4.1,8.6c-0.3,0.1-0.6,0.1-0.9,0.2c-25.4,0-50.8,0-76.2,0.1c-0.3-0.2-0.6-0.2-0.8,0
	c-1.6,0-3.1-0.1-4.7-0.1c-0.6-0.1-1.2-0.2-1.8-0.2c-2.8-2-4-4.7-3.8-8.3c0.7-10.5-1.4-21.1,1.7-31.4c4.7-15.6,14.7-26.2,30.2-31.1
	c4.7-1.5,6.2-3.4,6.1-8.4c-0.4-18.3-0.2-36.7-0.1-55c0-9.2,2.6-11.7,11.7-11.5c56,1.4,105,43.1,115.3,98.1
	c12.3,65.5-30.4,128.6-95.7,141.6c-70.1,13.9-137.7-37-143.6-108.3c-0.3-4-1.3-7.8-2.6-11.5c-11.9-34.3-4.8-62,22.1-86
	c15.7-14,33.8-23.3,54.4-27.8c1.3-0.3,3-1.2,3.9-0.2c1.2,1.3-0.8,2.3-1.3,3.4c-4.1,8.2-4.9,16.9-3.6,25.9c1,6.8,2.1,13.6,3.4,20.3
	c4.6,24.2-5.4,42.1-24.1,56.3c-7.9,6-17,10.2-25.7,15c-3.4,1.9-4,1-4.3-2.4c-1.5-16.9,1-33.2,7.2-48.9c1.1-2.8,2-5.6,3-8.5
	c3.3-2.8,4.7-6.6,5.8-10.6C203,138.4,200.5,142,198.4,145.8z M288.1,166.2c-0.3,0-0.6,0-0.9,0c-3.1,8.7-6.2,17.5-9.3,26.2
	c-0.8,2.3-0.1,3.1,2.2,2.9c1.2-0.1,2.5,0.2,3.6,0c3.5-0.5,4.9,0.6,4.6,4.4c-0.4,4.6-0.1,9.3-0.1,15c1-1.2,1.3-1.4,1.4-1.7
	c2.5-7.2,5-14.3,7.5-21.5c2.1-6.2,2-6.4-4.7-6.3c-3.4,0.1-4.6-1.1-4.4-4.5C288.3,175.9,288.1,171,288.1,166.2z"/>
<path class="st0" d="M275.3,246.4c0,4.7,0,9.5,0,14.2c0,4.3-2.8,4.8-6.2,4.9c-3.5,0.1-6.2-0.8-6.2-4.9c-0.1-9.6,0-19.2-0.1-28.8
	c0-2,0.8-2.8,2.7-2.7c0.2,0,0.3,0,0.5,0c9.4-0.7,9.4-0.7,9.4,8.7C275.3,240.6,275.3,243.5,275.3,246.4
	C275.3,246.4,275.3,246.4,275.3,246.4z"/>
<path class="st0" d="M313.7,245.9c0,4.7,0,9.5,0,14.2c0,4.6-3,5.4-6.8,5.4c-3.8,0-5.8-1.6-5.8-5.4c0-9.5,0-18.9,0-28.4
	c0-2,0.8-2.5,2.7-2.6c9.9-0.7,9.9-0.8,10,9.1C313.7,240.7,313.7,243.3,313.7,245.9C313.7,245.9,313.7,245.9,313.7,245.9z"/>
<path class="st1" d="M198.4,145.8c2.1-3.8,4.6-7.4,7.7-10.6c-1.1,4-2.5,7.8-5.8,10.6C199.7,145.9,199.1,145.9,198.4,145.8z"/>
<path class="st1" d="M246,224.8c0.6,0.1,1.2,0.2,1.8,0.2C247.1,225.7,246.5,225.6,246,224.8z"/>
<path class="st1" d="M252.5,225.1c0.3-0.2,0.6-0.2,0.8,0C253,225.1,252.8,225.1,252.5,225.1z"/>
<path class="st1" d="M329.5,225c0.3-0.1,0.6-0.1,0.9-0.2C330.2,225.3,329.9,225.4,329.5,225z"/>
<path class="st1" d="M288.1,166.2c0,4.8,0.2,9.7-0.1,14.5c-0.2,3.4,1,4.5,4.4,4.5c6.8-0.1,6.8,0.1,4.7,6.3c-2.4,7.2-5,14.4-7.5,21.5
	c-0.1,0.3-0.4,0.5-1.4,1.7c0-5.6-0.3-10.3,0.1-15c0.3-3.8-1.1-4.9-4.6-4.4c-1.2,0.2-2.4-0.1-3.6,0c-2.3,0.1-3-0.6-2.2-2.9
	c3.2-8.7,6.2-17.5,9.3-26.2C287.6,166.2,287.9,166.2,288.1,166.2z"/>
</svg>
